<?xml version="1.0" encoding="UTF-8"?>
<svg width="13px" height="12px" viewBox="0 0 13 12" version="1.1" xmlns="http://www.w3.org/2000/svg" xmlns:xlink="http://www.w3.org/1999/xlink">
    <title>去写评价</title>
    <g id="页面-3" stroke="none" stroke-width="1" fill="none" fill-rule="evenodd">
        <g id="-1-keeper-Web-design-" transform="translate(-747.000000, -8616.000000)" fill="#FFFFFF" fill-rule="nonzero">
            <g id="编组" transform="translate(660.000000, 8603.000000)">
                <g id="编组-208" transform="translate(20.000000, 9.000000)">
                    <path d="M79.0939151,6.37025457 L72.8767576,12.8360441 L70.6164662,12.8360441 L70.6164662,10.5757527 L76.8562266,4.1325661 C77.0329814,3.9558113 77.3191343,3.9558113 77.4958891,4.1325661 L79.0939151,5.73059211 C79.2706699,5.90734689 79.2706699,6.19349977 79.0939151,6.37025457 Z M77.1758318,5.09138169 L71.5205828,11.027811 L71.5205828,11.9319276 L72.4246993,11.9319276 L78.1350995,6.05064936 L77.1758318,5.09138169 Z M73.3288159,5.15060133 L67.9041166,5.15060133 L67.9041166,15.0958834 L77.8493987,15.0958834 L77.8493987,9.67118411 C77.8493987,9.34344186 77.945235,9.27563312 78.2729773,9.27563312 C78.6011716,9.27563312 78.7535152,9.34344186 78.7535152,9.67118411 L78.7535152,15.0958834 C78.7535152,15.5325717 78.286087,16 77.8493987,16 L67.9041166,16 C67.4674283,16 67,15.5325717 67,15.0958834 L67,5.15060133 C67,4.71346098 67.4674283,4.24648477 67.9041166,4.24648477 L73.3288159,4.24648477 C73.6565581,4.24648477 73.7243669,4.39928048 73.7243669,4.72702273 C73.7243669,5.05431292 73.6565581,5.15060133 73.3288159,5.15060133 Z" id="去写评价"></path>
                </g>
            </g>
        </g>
    </g>
</svg>