<?xml version="1.0" encoding="UTF-8"?>
<svg width="23px" height="23px" viewBox="0 0 23 23" version="1.1" xmlns="http://www.w3.org/2000/svg" xmlns:xlink="http://www.w3.org/1999/xlink">
    <title>编组 30</title>
    <g id="页面-3" stroke="none" stroke-width="1" fill="none" fill-rule="evenodd">
        <g id="-1-keeper-Web-design-" transform="translate(-268.000000, -6230.000000)" fill="#FFFFFF">
            <g id="编组-30" transform="translate(268.000000, 6230.000000)">
                <circle id="椭圆形" opacity="0.152397" cx="11.5" cy="11.5" r="11.5"></circle>
                <path d="M6.12458025,7.290839 C8.3807775,7.260224 10.43646,6.399404 12,5 C13.563525,6.399404 15.6192,7.260224 17.875425,7.290839 C17.957325,7.7789165 18,8.280314 18,8.791679 C18,12.7103315 15.4956,16.0440065 12,17.2795565 C8.5044225,16.0440065 6,12.7103315 6,8.791679 C6,8.280314 6.04264777,7.7789165 6.12458025,7.290839 Z M14.780325,10.071989 C15.0732,9.7790915 15.0732,9.3042215 14.780325,9.011324 C14.48745,8.718434 14.01255,8.718434 13.719675,9.011324 L11.25,11.480999 L10.2803325,10.511324 C9.987435,10.218434 9.512565,10.218434 9.2196675,10.511324 C8.9267775,10.8042215 8.9267775,11.2790915 9.2196675,11.571989 L10.7196675,13.0719815 C11.012565,13.3648565 11.487435,13.3648565 11.7803325,13.0719815 L14.780325,10.071989 Z" id="形状"></path>
            </g>
        </g>
    </g>
</svg>