<?xml version="1.0" encoding="UTF-8"?>
<svg width="23px" height="23px" viewBox="0 0 23 23" version="1.1" xmlns="http://www.w3.org/2000/svg" xmlns:xlink="http://www.w3.org/1999/xlink">
    <title>编组 53</title>
    <g id="页面-3" stroke="none" stroke-width="1" fill="none" fill-rule="evenodd">
        <g id="-1-keeper-Web-design-" transform="translate(-268.000000, -6020.000000)" fill="#FFFFFF">
            <g id="编组-53" transform="translate(268.000000, 6020.000000)">
                <circle id="椭圆形" opacity="0.152397" cx="11.5" cy="11.5" r="11.5"></circle>
                <path d="M10,6.66666667 C10,6.29847667 10.29848,6 10.6666667,6 C11.0348533,6 11.3333333,6.29847667 11.3333333,6.66666667 L11.3333333,7.33333333 L12.6666667,7.33333333 L12.6666667,6.66666667 C12.6666667,6.29847667 12.9651333,6 13.3333333,6 C13.7015333,6 14,6.29847667 14,6.66666667 L14,7.33333333 L15.3333333,7.33333333 C16.0697333,7.33333333 16.6666667,7.93028667 16.6666667,8.66666667 L16.6666667,10 L17.3333333,10 C17.7015333,10 18,10.29848 18,10.6666667 C18,11.0348533 17.7015333,11.3333333 17.3333333,11.3333333 L16.6666667,11.3333333 L16.6666667,12.6666667 L17.3333333,12.6666667 C17.7015333,12.6666667 18,12.9651333 18,13.3333333 C18,13.7015333 17.7015333,14 17.3333333,14 L16.6666667,14 L16.6666667,15.3333333 C16.6666667,16.0697333 16.0697333,16.6666667 15.3333333,16.6666667 L14,16.6666667 L14,17.3333333 C14,17.7015333 13.7015333,18 13.3333333,18 C12.9651333,18 12.6666667,17.7015333 12.6666667,17.3333333 L12.6666667,16.6666667 L11.3333333,16.6666667 L11.3333333,17.3333333 C11.3333333,17.7015333 11.0348533,18 10.6666667,18 C10.29848,18 10,17.7015333 10,17.3333333 L10,16.6666667 L8.66666667,16.6666667 C7.93028667,16.6666667 7.33333333,16.0697333 7.33333333,15.3333333 L7.33333333,14 L6.66666667,14 C6.29847667,14 6,13.7015333 6,13.3333333 C6,12.9651333 6.29847667,12.6666667 6.66666667,12.6666667 L7.33333333,12.6666667 L7.33333333,11.3333333 L6.66666667,11.3333333 C6.29847667,11.3333333 6,11.0348533 6,10.6666667 C6,10.29848 6.29847667,10 6.66666667,10 L7.33333333,10 L7.33333333,8.66666667 C7.33333333,7.93028667 7.93028667,7.33333333 8.66666667,7.33333333 L10,7.33333333 L10,6.66666667 Z M8.66666667,8.66666667 L15.3333333,8.66666667 L15.3333333,15.3333333 L8.66666667,15.3333333 L8.66666667,8.66666667 Z" id="形状"></path>
            </g>
        </g>
    </g>
</svg>