<?xml version="1.0" encoding="UTF-8"?>
<svg width="23px" height="23px" viewBox="0 0 23 23" version="1.1" xmlns="http://www.w3.org/2000/svg" xmlns:xlink="http://www.w3.org/1999/xlink">
    <title>编组 44</title>
    <g id="页面-3" stroke="none" stroke-width="1" fill="none" fill-rule="evenodd">
        <g id="-1-keeper-Web-design-" transform="translate(-268.000000, -6077.000000)" fill="#FFFFFF">
            <g id="编组-44" transform="translate(268.000000, 6077.000000)">
                <circle id="椭圆形" opacity="0.152397" cx="11.5" cy="11.5" r="11.5"></circle>
                <path d="M11,6.125 C11,5.50367975 11.5036775,5 12.125,5 C12.7463,5 13.25,5.50367975 13.25,6.125 L13.25,6.5 C13.25,6.91421 13.585775,7.25 14,7.25 L16.25,7.25 C16.664225,7.25 17,7.58579 17,8 L17,10.25 C17,10.66421 16.664225,11 16.25,11 L15.875,11 C15.2537,11 14.75,11.5036775 14.75,12.125 C14.75,12.7463 15.2537,13.25 15.875,13.25 L16.25,13.25 C16.664225,13.25 17,13.585775 17,14 L17,16.25 C17,16.664225 16.664225,17 16.25,17 L14,17 C13.585775,17 13.25,16.664225 13.25,16.25 L13.25,15.875 C13.25,15.2537 12.7463,14.75 12.125,14.75 C11.5036775,14.75 11,15.2537 11,15.875 L11,16.25 C11,16.664225 10.66421,17 10.25,17 L8,17 C7.58579,17 7.25,16.664225 7.25,16.25 L7.25,14 C7.25,13.585775 6.91421,13.25 6.5,13.25 L6.125,13.25 C5.50367975,13.25 5,12.7463 5,12.125 C5,11.5036775 5.50367975,11 6.125,11 L6.5,11 C6.91421,11 7.25,10.66421 7.25,10.25 L7.25,8 C7.25,7.58579 7.58579,7.25 8,7.25 L10.25,7.25 C10.66421,7.25 11,6.91421 11,6.5 L11,6.125 Z" id="路径" fill-rule="nonzero"></path>
            </g>
        </g>
    </g>
</svg>