<?xml version="1.0" encoding="UTF-8"?>
<svg width="23px" height="23px" viewBox="0 0 23 23" version="1.1" xmlns="http://www.w3.org/2000/svg" xmlns:xlink="http://www.w3.org/1999/xlink">
    <title>编组 39</title>
    <g id="页面-3" stroke="none" stroke-width="1" fill="none" fill-rule="evenodd">
        <g id="-1-keeper-Web-design-" transform="translate(-268.000000, -6125.000000)" fill="#FFFFFF">
            <g id="编组-39" transform="translate(268.000000, 6125.000000)">
                <circle id="椭圆形" opacity="0.152397" cx="11.5" cy="11.5" r="11.5"></circle>
                <g id="Icon" transform="translate(6.000000, 6.000000)">
                    <path d="M1.56222,5.25 L3.0214725,5.25 C3.0883725,4.0902075 3.30921,3.0218025 3.64983,2.16171 C2.56314,2.8285125 1.7813475,3.94386 1.56222,5.25 Z M6,0 C2.68629,0 0,2.68629 0,6 C0,9.313725 2.68629,12 6,12 C9.313725,12 12,9.313725 12,6 C12,2.68629 9.313725,0 6,0 Z M6,1.5 C5.9429625,1.5 5.8259025,1.5237975 5.651025,1.69638 C5.4729225,1.87215 5.2781325,2.163675 5.098365,2.5831275 C4.806855,3.263325 4.5936825,4.1891925 4.5242775,5.25 L7.4757225,5.25 C7.4063175,4.1891925 7.193145,3.263325 6.901635,2.5831275 C6.7218675,2.163675 6.5270775,1.87215 6.348975,1.69638 C6.1740975,1.5237975 6.0570375,1.5 6,1.5 Z M8.97855,5.25 C8.91165,4.0902075 8.690775,3.0218025 8.3502,2.16171 C9.436875,2.8285125 10.218675,3.94386 10.43775,5.25 L8.97855,5.25 Z M7.4757225,6.75 L4.5242775,6.75 C4.5936825,7.8108 4.806855,8.736675 5.098365,9.41685 C5.2781325,9.836325 5.4729225,10.12785 5.651025,10.30365 C5.8259025,10.476225 5.9429625,10.5 6,10.5 C6.0570375,10.5 6.1740975,10.476225 6.348975,10.30365 C6.5270775,10.12785 6.7218675,9.836325 6.901635,9.41685 C7.193145,8.736675 7.4063175,7.8108 7.4757225,6.75 Z M8.3502,9.838275 C8.690775,8.978175 8.91165,7.9098 8.97855,6.75 L10.43775,6.75 C10.218675,8.056125 9.436875,9.171525 8.3502,9.838275 Z M3.64983,9.838275 C3.30921,8.978175 3.0883725,7.9098 3.0214725,6.75 L1.56222,6.75 C1.7813475,8.056125 2.56314,9.171525 3.64983,9.838275 Z" id="形状"></path>
                </g>
            </g>
        </g>
    </g>
</svg>