<?xml version="1.0" encoding="UTF-8"?>
<svg width="23px" height="23px" viewBox="0 0 23 23" version="1.1" xmlns="http://www.w3.org/2000/svg" xmlns:xlink="http://www.w3.org/1999/xlink">
    <title>编组 18</title>
    <g id="页面-3" stroke="none" stroke-width="1" fill="none" fill-rule="evenodd">
        <g id="-1-keeper-Web-design-" transform="translate(-268.000000, -6335.000000)" fill="#FFFFFF">
            <g id="编组-18" transform="translate(268.000000, 6335.000000)">
                <circle id="椭圆形" opacity="0.152397" cx="11.5" cy="11.5" r="11.5"></circle>
                <path d="M8.625,16 C7.17525,16 6,14.82475 6,13.375 C6,12.0187225 7.028595,10.902685 8.348265,10.764415 C8.2841475,10.520365 8.25,10.2641725 8.25,10 C8.25,8.343145 9.593145,7 11.25,7 C12.65913,7 13.841325,7.971535 14.163375,9.2813125 C14.314275,9.260665 14.4684,9.25 14.625,9.25 C16.488975,9.25 18,10.76104 18,12.625 C18,14.48896 16.488975,16 14.625,16 L8.625,16 Z" id="路径" fill-rule="nonzero"></path>
            </g>
        </g>
    </g>
</svg>