<?xml version="1.0" encoding="UTF-8"?>
<svg width="23px" height="23px" viewBox="0 0 23 23" version="1.1" xmlns="http://www.w3.org/2000/svg" xmlns:xlink="http://www.w3.org/1999/xlink">
    <title>编组 35</title>
    <g id="页面-3" stroke="none" stroke-width="1" fill="none" fill-rule="evenodd">
        <g id="-1-keeper-Web-design-" transform="translate(-268.000000, -6178.000000)" fill="#FFFFFF">
            <g id="编组-35" transform="translate(268.000000, 6178.000000)">
                <circle id="椭圆形" opacity="0.152397" cx="11.5" cy="11.5" r="11.5"></circle>
                <path d="M17,10.75 C17,12.8210688 15.3210625,14.5 13.25,14.5 C12.8711437,14.5 12.5054063,14.4438125 12.1606687,14.3393125 L10.75,15.75 L9.5,15.75 L9.5,17 L7,17 L7,14.5 L9.66066875,11.8393313 C9.55618125,11.4945937 9.5,11.1288563 9.5,10.75 C9.5,8.67893125 11.1789312,7 13.25,7 C15.3210625,7 17,8.67893125 17,10.75 Z M13.25,8.25 C12.9048188,8.25 12.625,8.529825 12.625,8.875 C12.625,9.220175 12.9048188,9.5 13.25,9.5 C13.940375,9.5 14.5,10.0596437 14.5,10.75 C14.5,11.095175 14.7798125,11.375 15.125,11.375 C15.4701875,11.375 15.75,11.095175 15.75,10.75 C15.75,9.3692875 14.6306875,8.25 13.25,8.25 Z" id="形状"></path>
            </g>
        </g>
    </g>
</svg>