<?xml version="1.0" encoding="UTF-8"?>
<svg width="23px" height="23px" viewBox="0 0 23 23" version="1.1" xmlns="http://www.w3.org/2000/svg" xmlns:xlink="http://www.w3.org/1999/xlink">
    <title>编组 45</title>
    <g id="页面-3" stroke="none" stroke-width="1" fill="none" fill-rule="evenodd">
        <g id="-1-keeper-Web-design-" transform="translate(-268.000000, -5967.000000)" fill="#FFFFFF">
            <g id="编组-45" transform="translate(268.000000, 5967.000000)">
                <circle id="椭圆形" opacity="0.152397" cx="11.5" cy="11.5" r="11.5"></circle>
                <g id="Icon" transform="translate(6.000000, 6.000000)" fill-rule="nonzero">
                    <path d="M6.75,0.75 C6.75,0.33578625 6.4142175,0 6,0 C5.5857825,0 5.25,0.33578625 5.25,0.75 L5.25,1.5 C5.25,1.91421 5.5857825,2.25 6,2.25 C6.4142175,2.25 6.75,1.91421 6.75,1.5 L6.75,0.75 Z" id="路径"></path>
                    <path d="M10.2426,2.8179825 C10.535475,2.525085 10.535475,2.050215 10.2426,1.7573175 C9.949725,1.4644275 9.474825,1.4644275 9.18195,1.7573175 L8.651625,2.28765 C8.35875,2.58054 8.35875,3.0554175 8.651625,3.3483075 C8.9445,3.641205 9.4194,3.641205 9.712275,3.3483075 L10.2426,2.8179825 Z" id="路径"></path>
                    <path d="M12,6 C12,6.4142175 11.664225,6.75 11.25,6.75 L10.5,6.75 C10.085775,6.75 9.75,6.41421 9.75,6 C9.75,5.5857825 10.085775,5.25 10.5,5.25 L11.25,5.25 C11.664225,5.25 12,5.5857825 12,6 Z" id="路径"></path>
                    <path d="M2.2876425,3.3483225 C2.5805325,3.64122 3.05541,3.64122 3.3483,3.3483225 C3.6411975,3.0554325 3.6411975,2.580555 3.3483,2.287665 L2.817975,1.7573325 C2.5250775,1.4644425 2.0502075,1.4644425 1.75731,1.7573325 C1.46442,2.0502225 1.46442,2.5251 1.75731,2.81799 L2.2876425,3.3483225 Z" id="路径"></path>
                    <path d="M2.25,6 C2.25,6.4142175 1.91421,6.75 1.5,6.75 L0.75,6.75 C0.33578625,6.75 0,6.41421 0,6 C0,5.5857825 0.33578625,5.25 0.75,5.25 L1.5,5.25 C1.91421,5.25 2.25,5.5857825 2.25,6 Z" id="路径"></path>
                    <path d="M4.5,10.5 L4.5,9.75 L7.5,9.75 L7.5,10.5 C7.5,11.32845 6.8284275,12 6,12 C5.1715725,12 4.5,11.32845 4.5,10.5 Z" id="路径"></path>
                    <path d="M7.500675,9 C7.511625,8.744775 7.6557,8.515275 7.8576,8.355825 C8.55345,7.80645 9,6.95538 9,6 C9,4.343145 7.656825,3 6,3 C4.343145,3 3,4.343145 3,6 C3,6.95538 3.4465875,7.80645 4.1423925,8.355825 C4.3443075,8.515275 4.4883825,8.744775 4.4993325,9 L7.500675,9 Z" id="路径"></path>
                </g>
            </g>
        </g>
    </g>
</svg>