<?xml version="1.0" encoding="UTF-8"?>
<svg width="23px" height="23px" viewBox="0 0 23 23" version="1.1" xmlns="http://www.w3.org/2000/svg" xmlns:xlink="http://www.w3.org/1999/xlink">
    <title>编组 28</title>
    <g id="页面-3" stroke="none" stroke-width="1" fill="none" fill-rule="evenodd">
        <g id="-1-keeper-Web-design-" transform="translate(-268.000000, -6281.000000)" fill="#FFFFFF">
            <g id="编组-28" transform="translate(268.000000, 6281.000000)">
                <circle id="椭圆形" opacity="0.152397" cx="11.5" cy="11.5" r="11.5"></circle>
                <g id="Icon" transform="translate(6.000000, 7.000000)">
                    <path d="M0,1.42857143 C0,0.639592857 0.639593571,0 1.42857143,0 L10,0 C10.789,0 11.4285714,0.639593571 11.4285714,1.42857143 L11.4285714,8.57142857 C11.4285714,9.36042857 10.789,10 10,10 L1.42857143,10 C0.639593571,10 0,9.36042857 0,8.57142857 L0,1.42857143 Z M2.35206429,2.35206429 C2.63101429,2.07312143 3.08327143,2.07312143 3.36222143,2.35206429 L5.50507857,4.49492143 C5.78402143,4.77387143 5.78402143,5.22612857 5.50507857,5.50507857 L3.36222143,7.64792857 C3.08327143,7.92685714 2.63101429,7.92685714 2.35206429,7.64792857 C2.07312143,7.369 2.07312143,6.91672857 2.35206429,6.63777857 L3.98985,5 L2.35206429,3.36222143 C2.07312143,3.08327143 2.07312143,2.63101429 2.35206429,2.35206429 Z M6.42857143,6.42857143 C6.03407857,6.42857143 5.71428571,6.74836429 5.71428571,7.14285714 C5.71428571,7.53735714 6.03407857,7.85714286 6.42857143,7.85714286 L8.57142857,7.85714286 C8.96592857,7.85714286 9.28571429,7.53735714 9.28571429,7.14285714 C9.28571429,6.74836429 8.96592857,6.42857143 8.57142857,6.42857143 L6.42857143,6.42857143 Z" id="形状"></path>
                </g>
            </g>
        </g>
    </g>
</svg>