<?xml version="1.0" encoding="UTF-8"?>
<svg width="23px" height="23px" viewBox="0 0 23 23" version="1.1" xmlns="http://www.w3.org/2000/svg" xmlns:xlink="http://www.w3.org/1999/xlink">
    <title>编组 6</title>
    <g id="页面-3" stroke="none" stroke-width="1" fill="none" fill-rule="evenodd">
        <g id="-1-keeper-Web-design-" transform="translate(-268.000000, -6388.000000)" fill="#FFFFFF">
            <g id="编组-6" transform="translate(268.000000, 6388.000000)">
                <circle id="椭圆形" opacity="0.152397" cx="11.5" cy="11.5" r="11.5"></circle>
                <path d="M15.4146014,9.75623064 C15.6471014,9.63998813 15.9231765,9.65240813 16.1442765,9.78906565 C16.3653765,9.92571567 16.5000009,10.1671182 16.5000009,10.4270532 L16.5000009,10.4270532 L16.5000009,14.7500014 C16.5000009,15.0341014 16.3395015,15.2937515 16.0854015,15.4208015 L16.0854015,15.4208015 L13.0854085,16.9208017 C12.8529235,17.0370517 12.576811,17.0246767 12.3557034,16.8880267 C12.1345884,16.7513017 12.0000009,16.5099516 12.0000009,16.2500016 L12.0000009,16.2500016 L12.0000009,11.9270535 C12.0000009,11.6429759 12.1605009,11.3832734 12.4145934,11.2562309 L12.4145934,11.2562309 Z M6.3557018,9.78906565 C6.57681383,9.65240813 6.85292263,9.63998813 7.08540766,9.75623064 L7.08540766,9.75623064 L10.0854081,11.2562309 C10.3395006,11.3832734 10.5,11.6429759 10.5,11.9270535 L10.5,11.9270535 L10.5,16.2500016 C10.5,16.5099516 10.3654131,16.7513017 10.1442981,16.8880267 C9.92318308,17.0246767 9.64707804,17.0370517 9.414593,16.9208017 L9.414593,16.9208017 L6.41458956,15.4208015 C6.16050152,15.2937515 6,15.0341014 6,14.7500014 L6,14.7500014 L6,10.4270532 C6,10.1671182 6.13458902,9.92571567 6.3557018,9.78906565 Z M10.9145932,5.07917971 C11.1257333,4.97360676 11.3742683,4.97360676 11.5854083,5.07917971 L11.5854083,5.07917971 L15.1583263,6.86565522 C15.4124264,6.99269774 15.5729264,7.25239277 15.5729264,7.53647782 C15.5729264,7.82055536 15.4124264,8.0802504 15.1583263,8.20729291 L15.1583263,8.20729291 L11.5854083,9.99377068 C11.3742683,10.0993407 11.1257333,10.0993407 10.9145932,9.99377068 L10.9145932,9.99377068 L7.3416377,8.20729291 C7.08755266,8.0802504 6.92705264,7.82055536 6.92705264,7.53647782 C6.92705264,7.25239277 7.08755266,6.99269774 7.3416377,6.86565522 L7.3416377,6.86565522 Z" id="形状结合" fill-rule="nonzero"></path>
            </g>
        </g>
    </g>
</svg>