<svg height="48" viewBox="0 0 48 48" width="48" xmlns="http://www.w3.org/2000/svg"><g fill="none" fill-rule="evenodd"><path d="m16.0902734 1.00590178c2.4258419-1.3412059 5.3937227-1.34120215 7.819561.00000989l12.0602438 6.66793987c2.490346 1.37687744 4.0299218 3.95666136 4.0299218 6.75272226v13.1468524c0 2.7960609-1.5395758 5.3758448-4.0299218 6.7527223l-12.0602438 6.6679398c-2.4258383 1.3412121-5.3937191 1.3412158-7.819561.0000099l-12.06033372-6.6679493c-2.49035607-1.3768747-4.02993968-3.9566641-4.02993968-6.7527321v-13.1468336c0-2.796068 1.53958361-5.37585744 4.02993968-6.75273211zm6.6508046 2.01860647c-1.7006806-.94028246-3.7813705-.94028509-5.4820535-.00000693l-12.06033372 6.6679493c-1.74591196.96528448-2.82526662 2.77389538-2.82526662 4.73413258v13.1468336c0 1.9602372 1.07935466 3.7688481 2.82526662 4.7341326l12.06033372 6.6679493c1.700683.9402781 3.7813729.9402755 5.4820535-.000007l12.0602438-6.6679398c1.7459049-.9652864 2.825254-2.7738935 2.825254-4.7341257v-13.1468524c0-1.9602322-1.0793491-3.7688393-2.825254-4.73412568zm1.339922 6.99349175.076.003.0493012.0060981c.0268825.0037647.0534357.0088579.0794887.0151242.0066952.0017486.0133125.0034294.0198978.0051859.0215508.0055862.0427587.0121326.0635733.0194501.0466808.0165855.0918942.0371204.1347488.0612112.033169.0184775.0646111.0390638.0944529.0615335.0587977.0444207.1111006.0955994.1559717.1526504.015458.0196519.0304528.0406102.0444461.0622246l.015177.0243393c.0122737.0205121.0235411.0412925.0339028.0625513l.0172055.0378699c.0070889.0164503.0137007.0335228.0197374.0508381.0057839.0170467.0110437.0339699.0157547.0511127l.0114636.0461674c.0035716.0178546.0068205.0361879.0094422.054717l.0057848.0505381c.0004673.0090188.0010478.0185006.0014637.028024l.0007832 21.5213211c0 .4454296-.3597953.8087411-.8108822.8275542l-.0367693.0007653h-5.6590586c-.4558254 0-.8276161-.3515896-.8468683-.7923887l-.0007832-.0359308v-6.7486681c0-.4574682.3795065-.8283195.8476515-.8283195.4558254 0 .8276161.3515896.8468684.7923887l.0007831.0359308-.0000668 5.9202404h3.9637878v-19.8286431l-4.3984635.0001227-.0099141.0283758c-.891113 2.4817914-2.9482998 4.4087212-5.5105388 5.1728336l-.2867381.0800853-.0665252.016968v4.0796392l.0938708-.0158256c1.2515647-.217757 2.4544511-.6204509 3.5750855-1.1930338.4148577-.2119696.927012-.0551664 1.1439287.3502298s.0564539.90587-.3584038 1.1178396c-1.6162658.8258235-3.3839024 1.3408846-5.2228456 1.5097118-.4617541.042392-.8652129-.2841891-.920494-.7218379l-.0064446-.1028501.0008707-5.7316857c.0179333-.388191.3110491-.7143753.7066631-.7791707 2.616583-.4285552 4.7435391-2.3406014 5.4136229-4.8489625.0876759-.3282019.3694648-.5671113.7061106-.6116112l.1140559-.0074887z" fill="#fff" fill-rule="nonzero" transform="translate(4 3)"/><path d="m0 0h48v48h-48z" fill="#d8d8d8" opacity="0"/></g></svg>