<svg height="18" viewBox="0 0 18 18" width="18" xmlns="http://www.w3.org/2000/svg"><g fill="none" fill-rule="evenodd"><path d="m0 0h18v18h-18z" fill="#d8d8d8" opacity="0"/><path d="m10.8240503 3.58859116.0692478.05785545 4.9497475 4.94974747c.1735664.17356635.1928515.44299075.0578555.63785889l-.0578555.06924789-4.9497475 4.94974744c-.1952621.1952622-.5118446.1952622-.7071067 0-.1735664-.1735663-.19285154-.4429907-.0578555-.6378589l.0578555-.0692479 4.0948086-4.0969415-12.281.00074747c-.27614237 0-.5-.22385763-.5-.5 0-.24545989.17687516-.44960837.41012437-.49194433l.08987563-.00805567 12.283-.00074747-4.0968086-4.09544661c-.1735664-.17356635-.19285154-.44299075-.0578555-.63785889l.0578555-.06924789c.1735663-.17356635.4429907-.1928515.6378589-.05785545z" fill="#fff" fill-rule="nonzero"/></g></svg>