<svg width="30" height="30" viewBox="0 0 30 30" fill="none" xmlns="http://www.w3.org/2000/svg">
<g opacity="0.7">
<path d="M21.7874 0H8.21258C3.6769 0 0 3.59105 0 8.02083V21.9792C0 26.4089 3.6769 30 8.21258 30H21.7874C26.3231 30 30 26.4089 30 21.9792V8.02083C30 3.59105 26.3231 0 21.7874 0Z" fill="#232323"/>
<path d="M14.416 9.59992C11.0653 9.59992 8.71483 11.0678 8.71483 11.0678C10.0026 9.89352 12.2531 9.21699 12.2531 9.21699L12.0405 9C9.92759 9.03829 8.0147 10.5317 8.0147 10.5317C5.86425 15.1142 6.00177 19.0711 6.00177 19.0711C7.75214 21.3815 10.3527 21.2156 10.3527 21.2156L11.2404 20.0668C9.67752 19.7221 8.68984 18.3053 8.68984 18.3053C8.68984 18.3053 11.0403 19.9391 14.416 19.9391C17.7917 19.9391 20.1422 18.3053 20.1422 18.3053C20.1422 18.3053 19.1545 19.7221 17.5916 20.0668L18.4793 21.2156C18.4793 21.2156 21.0798 21.3815 22.8302 19.0711C22.8302 19.0711 22.9677 15.1142 20.8173 10.5317C20.8173 10.5317 18.9044 9.03829 16.7915 9L16.5789 9.21699C16.5789 9.21699 18.8294 9.89352 20.1172 11.0678C20.1172 11.0678 17.7667 9.59992 14.416 9.59992ZM11.828 14.4376C12.6406 14.4376 13.3033 15.1652 13.2908 16.0587C13.2908 16.9395 12.6406 17.6798 11.828 17.6798C11.0278 17.6798 10.3777 16.9395 10.3777 16.0587C10.3777 15.1652 11.0153 14.4376 11.828 14.4376ZM17.0415 14.4376C17.8542 14.4376 18.5043 15.1652 18.5043 16.0587C18.5043 16.9395 17.8542 17.6798 17.0415 17.6798C16.2414 17.6798 15.5912 16.9395 15.5912 16.0587C15.5912 15.1652 16.2289 14.4376 17.0415 14.4376Z" fill="white"/>
</g>
</svg>
