<svg width="30" height="30" viewBox="0 0 30 30" fill="none" xmlns="http://www.w3.org/2000/svg">
<g opacity="0.7">
<path d="M21.7874 0H8.21258C3.6769 0 0 3.59105 0 8.02083V21.9792C0 26.4089 3.6769 30 8.21258 30H21.7874C26.3231 30 30 26.4089 30 21.9792V8.02083C30 3.59105 26.3231 0 21.7874 0Z" fill="#232323"/>
<path d="M25.0025 15.0625C25.0025 9.505 20.525 5 15.0025 5C9.4775 5.00125 5 9.505 5 15.0638C5 20.085 8.6575 24.2475 13.4375 25.0025V17.9713H10.9V15.0638H13.44V12.845C13.44 10.3238 14.9338 8.93125 17.2175 8.93125C18.3125 8.93125 19.4563 9.1275 19.4563 9.1275V11.6025H18.195C16.9538 11.6025 16.5663 12.3787 16.5663 13.175V15.0625H19.3388L18.8963 17.97H16.565V25.0012C21.345 24.2463 25.0025 20.0838 25.0025 15.0625Z" fill="white"/>
</g>
</svg>
