<svg width="30" height="30" viewBox="0 0 30 30" fill="none" xmlns="http://www.w3.org/2000/svg">
<g opacity="0.7">
<path d="M21.7874 0H8.21258C3.6769 0 0 3.59105 0 8.02083V21.9792C0 26.4089 3.6769 30 8.21258 30H21.7874C26.3231 30 30 26.4089 30 21.9792V8.02083C30 3.59105 26.3231 0 21.7874 0Z" fill="#232323"/>
<path d="M15.5012 5C9.69925 4.99771 5 9.59261 5 15.2639C5 19.7487 7.93967 23.5609 12.0336 24.961C12.585 25.0964 12.5005 24.7131 12.5005 24.4515V22.6727C9.31684 23.0376 9.1878 20.9766 8.9743 20.6323C8.54262 19.9116 7.52206 19.728 7.82706 19.3837C8.55201 19.0188 9.29103 19.4756 10.1474 20.7126C10.7667 21.6101 11.975 21.4586 12.5873 21.3094C12.721 20.77 13.0073 20.288 13.4014 19.9139C10.1028 19.3356 8.72796 17.3663 8.72796 15.0252C8.72796 13.8891 9.11038 12.8448 9.86113 12.0025C9.38253 10.614 9.90571 9.42506 9.97609 9.24834C11.3392 9.12899 12.7562 10.2031 12.8665 10.288C13.6407 10.0838 14.5252 9.9759 15.5152 9.9759C16.51 9.9759 17.3968 10.0884 18.1781 10.2949C18.4432 10.0975 19.757 9.17489 21.0239 9.28735C21.0919 9.46408 21.6034 10.6254 21.1529 11.9956C21.9131 12.8403 22.3002 13.8937 22.3002 15.0321C22.3002 17.3778 20.916 19.3493 17.608 19.9185C18.1593 20.451 18.5018 21.19 18.5018 22.0071V24.5892C18.5206 24.7957 18.5018 25 18.8538 25C23.0087 23.6298 26 19.79 26 15.2662C26 9.59261 21.2984 5 15.5012 5Z" fill="white"/>
</g>
</svg>
