<svg width="30" height="30" viewBox="0 0 30 30" fill="none" xmlns="http://www.w3.org/2000/svg">
<g opacity="0.7">
<path d="M21.7874 0H8.21258C3.6769 0 0 3.59105 0 8.02083V21.9792C0 26.4089 3.6769 30 8.21258 30H21.7874C26.3231 30 30 26.4089 30 21.9792V8.02083C30 3.59105 26.3231 0 21.7874 0Z" fill="#232323"/>
<path d="M8.82333 10.6467C9.83033 10.6467 10.6467 9.83033 10.6467 8.82333C10.6467 7.81633 9.83033 7 8.82333 7C7.81633 7 7 7.81633 7 8.82333C7 9.83033 7.81633 10.6467 8.82333 10.6467Z" fill="white"/>
<path d="M12.3683 12.0273V22.1432H15.5092V17.1407C15.5092 15.8207 15.7575 14.5423 17.3942 14.5423C19.0083 14.5423 19.0283 16.0515 19.0283 17.224V22.144H22.1708V16.5965C22.1708 13.8715 21.5842 11.7773 18.3992 11.7773C16.87 11.7773 15.845 12.6165 15.4258 13.4107H15.3833V12.0273H12.3683ZM7.25 12.0273H10.3958V22.1432H7.25V12.0273Z" fill="white"/>
</g>
</svg>
