<svg width="30" height="30" viewBox="0 0 30 30" fill="none" xmlns="http://www.w3.org/2000/svg">
<g opacity="0.7">
<path d="M21.7874 0H8.21258C3.6769 0 0 3.59105 0 8.02083V21.9792C0 26.4089 3.6769 30 8.21258 30H21.7874C26.3231 30 30 26.4089 30 21.9792V8.02083C30 3.59105 26.3231 0 21.7874 0Z" fill="#232323"/>
<path fill-rule="evenodd" clip-rule="evenodd" d="M8 20.9473H12.1023L10.4528 18.7206V12.6824L14.3617 20.9473L17.8439 12.6824V19.4339L16.649 20.9473H22.5625L21.0851 19.4339V10.5269L21.812 9H18.2191L15.4767 15.9394L12.1023 9H8L9.63735 11.1535V18.7206L8 20.9473Z" fill="white"/>
</g>
</svg>
