<svg width="30" height="30" viewBox="0 0 30 30" fill="none" xmlns="http://www.w3.org/2000/svg">
<g opacity="0.7">
<path d="M21.7874 0H8.21258C3.6769 0 0 3.59105 0 8.02083V21.9792C0 26.4089 3.6769 30 8.21258 30H21.7874C26.3231 30 30 26.4089 30 21.9792V8.02083C30 3.59105 26.3231 0 21.7874 0Z" fill="#232323"/>
<path d="M15 5C9.47581 5 5 9.47581 5 15C5 20.5242 9.47581 25 15 25C20.5242 25 25 20.5242 25 15C25 9.47581 20.5242 5 15 5ZM19.9113 11.8508L18.2702 19.5847C18.1492 20.1331 17.8226 20.2661 17.3669 20.0081L14.8669 18.1653L13.6613 19.3266C13.5282 19.4597 13.4153 19.5726 13.1573 19.5726L13.3347 17.0282L17.9677 12.8427C18.1694 12.6653 17.9234 12.5645 17.6573 12.7419L11.9315 16.3468L9.46371 15.5766C8.92742 15.4073 8.91532 15.0403 9.57661 14.7823L19.2177 11.0645C19.6653 10.9032 20.0565 11.1734 19.9113 11.8508Z" fill="white"/>
</g>
</svg>
