<svg width="30" height="30" viewBox="0 0 30 30" fill="none" xmlns="http://www.w3.org/2000/svg">
<g opacity="0.7">
<path d="M21.7874 0H8.21258C3.6769 0 0 3.59105 0 8.02083V21.9792C0 26.4089 3.6769 30 8.21258 30H21.7874C26.3231 30 30 26.4089 30 21.9792V8.02083C30 3.59105 26.3231 0 21.7874 0Z" fill="#232323"/>
<path d="M23.1376 11.4408C22.6304 12.1757 22.098 12.7482 21.5388 13.155V13.5635C21.5388 15.9579 20.7056 18.1208 19.0408 20.0537C17.3743 21.9866 15.1424 22.9514 12.3435 22.9514C10.5306 22.9514 8.87832 22.461 7.38672 21.4816C7.5458 21.509 7.79939 21.5218 8.14591 21.5218C9.63909 21.5218 10.9842 21.0458 12.1828 20.0939C11.4898 20.0681 10.8629 19.843 10.3038 19.4201C9.74462 18.9988 9.35872 18.4617 9.14609 17.8088C9.41228 17.8635 9.61231 17.8908 9.74619 17.8908C10.0392 17.8908 10.3321 17.8506 10.6251 17.7686C9.8785 17.6319 9.25949 17.2572 8.76649 16.6445C8.27349 16.0319 8.0262 15.3324 8.0262 14.5428V14.4624C8.55858 14.7615 9.03898 14.911 9.46583 14.911C8.53338 14.2582 8.06558 13.3335 8.06558 12.1355C8.06558 11.51 8.19946 10.9664 8.46565 10.5033C10.1982 12.6533 12.4238 13.795 15.1424 13.9317C15.0889 13.6053 15.0621 13.3592 15.0621 13.1968C15.0621 12.2722 15.3755 11.4891 16.0009 10.8506C16.6277 10.2106 17.3948 9.89062 18.3005 9.89062C19.2597 9.89062 20.0457 10.2315 20.6584 10.9101C21.405 10.7477 22.0854 10.4888 22.6981 10.1351C22.4571 10.9246 21.9909 11.5228 21.2979 11.9313C21.9121 11.8493 22.5248 11.6868 23.1376 11.4408Z" fill="white"/>
</g>
</svg>
